<svg width="252" height="52" viewBox="0 0 252 52" fill="none" xmlns="http://www.w3.org/2000/svg">
<path d="M20.4083 35.3385H8.40126V9.75023H20.4083V35.3385ZM20.8555 22.5627C20.8555 15.4609 26.5662 9.75023 33.6313 9.75023C38.3902 9.75023 42.5268 12.3127 44.7598 16.1565L33.6313 22.5627L44.7598 28.9323C42.5634 32.776 38.3902 35.3385 33.6313 35.3385C26.5662 35.3385 20.8555 29.6278 20.8555 22.5627ZM43.8806 22.5627C43.8806 15.4609 49.5913 9.75023 56.6564 9.75023C63.7582 9.75023 69.5055 15.4609 69.4688 22.5627C69.4688 29.6278 63.7582 35.3385 56.6564 35.3385C49.5913 35.3385 43.8806 29.6278 43.8806 22.5627ZM69.8977 9.75023L83.4789 17.5475V9.75023H95.486V35.3385L81.9048 27.5412V35.3385H69.8977V9.75023ZM96.9981 9.75023H116.583C119.914 9.75023 122.586 12.4225 122.586 15.7538C122.586 19.0484 119.914 21.7573 116.583 21.7573H109.005V23.3314H116.583C119.914 23.3314 122.586 26.0403 122.586 29.335C122.586 32.6662 119.914 35.3385 116.583 35.3385H96.9981C96.9981 26.8091 96.9981 18.2797 96.9981 9.75023ZM122.322 22.5627C122.322 15.4609 128.033 9.75023 135.098 9.75023C142.2 9.75023 147.947 15.4609 147.91 22.5627C147.91 29.6278 142.2 35.3385 135.098 35.3385C128.033 35.3385 122.322 29.6278 122.322 22.5627ZM174.058 35.3385H160.111V27.8707H158.537V35.3385H144.59L159.306 9.75023L174.058 35.3385ZM174.224 9.75023H190.77C195.749 9.75023 199.812 13.8136 199.812 18.7922C199.812 22.2698 197.836 25.3448 194.944 26.8457L199.849 35.3751H187.805V26.8457H186.231V35.3385H174.224C174.224 8.24935 174.224 28.31 174.224 9.75023ZM200.394 23.3314H213.975V21.7573H200.394V9.75023H213.207C220.235 9.75023 226.019 15.4975 225.983 22.5627C225.983 29.5912 220.235 35.3751 213.17 35.3751H200.394V23.3314Z" fill="white"/>
<path d="M227.538 34.0102C227.929 34.0102 228.266 34.3361 228.266 34.7381C228.266 35.1401 227.929 35.4661 227.538 35.4661C227.136 35.4661 226.81 35.1401 226.81 34.7381C226.81 34.3361 227.136 34.0102 227.538 34.0102ZM233.474 33.6299C233.496 33.9233 233.387 34.3687 233.029 34.7599C232.725 35.0749 232.16 35.4661 231.16 35.4661C230.269 35.4661 229.726 35.1075 229.433 34.8142C229.052 34.4231 228.835 33.8798 228.846 33.3149L230.019 33.3257C230.019 33.4452 230.041 33.7494 230.269 33.9885C230.465 34.184 230.769 34.2818 231.16 34.2818C231.779 34.2818 232.062 34.0863 232.192 33.9233C232.268 33.8255 232.236 33.6734 232.127 33.6191C231.845 33.467 231.323 33.3257 231.008 33.2279L230.802 33.1736C229.78 32.8694 228.846 32.4565 228.846 31.4135C228.835 31.0333 229.02 30.6421 229.335 30.3271C229.769 29.8925 230.4 29.6643 231.128 29.6643H231.138C231.921 29.6643 232.529 29.8925 232.942 30.3488C233.42 30.892 233.463 31.5439 233.453 31.8155V31.9568H232.279V31.8155C232.279 31.8155 232.301 31.4027 232.051 31.1311C231.877 30.9355 231.562 30.8377 231.138 30.8377H231.128C230.302 30.8377 230.106 31.294 230.117 31.4135C230.139 31.5331 230.139 31.7395 231.128 32.0328L231.334 32.098C232.312 32.3805 233.409 32.6956 233.474 33.6299ZM234.839 29.3275C234.437 29.3275 234.111 28.9907 234.111 28.5887C234.111 28.1867 234.437 27.8499 234.839 27.8499C235.241 27.8499 235.578 28.1867 235.578 28.5887C235.578 28.9907 235.241 29.3275 234.839 29.3275ZM235.458 35.4661H234.209V29.6426H235.458V35.4661ZM237.97 34.2058H238.469V35.4661H237.97C237.068 35.4661 236.34 34.7381 236.34 33.8364V28.4366H237.6V29.9685H238.437V31.2288H237.6V33.8364C237.6 34.0428 237.763 34.2058 237.97 34.2058ZM244.218 32.9889H240.078C240.23 33.7277 240.828 34.2709 241.534 34.2709C242.066 34.2709 242.534 33.9667 242.794 33.4996H244.109C243.761 34.6512 242.74 35.4878 241.534 35.4878C240.035 35.4878 238.829 34.1949 238.829 32.6087C238.829 31.0224 240.035 29.7295 241.534 29.7295C242.74 29.7295 243.761 30.5661 244.109 31.7178C244.196 32.0002 244.239 32.2936 244.239 32.6087C244.239 32.739 244.239 32.8585 244.218 32.9889ZM240.274 31.7178H242.794C242.534 31.2506 242.066 30.9464 241.534 30.9464C241.002 30.9464 240.534 31.2506 240.274 31.7178Z" fill="white"/>
</svg>
